#!OML:ASF H:\Terrain\Patient Classification 1\Terrain2\Thursday\justin.ASF
:FULLY-SPECIFIED
:DEGREES
4193
root 14.5648 24.453 0.824719 -406.57 -95.7178 416.723
lowerback 24.4104 2.35463 1.34893
upperback 5.57547 3.02023 1.09271
thorax -7.39975 1.23658 -0.456647
lowerneck -17.0727 -3.27328 -9.92489
upperneck 30.355 -5.7201 10.2088
head 13.7181 -2.52718 4.799
rclavicle -3.96793e-015 -8.75895e-015
rhumerus -24.6496 0.766302 -85.001
rradius 49.7491
rwrist -16.6852
rhand -23.0136 11.1183
rfingers 7.12502
rthumb 3.43 -18.8339
lclavicle -3.96793e-015 -8.75895e-015
lhumerus -28.1655 -0.716149 83.3794
lradius 44.1358
lwrist 10.5374
lhand -22.2711 21.6096
lfingers 7.12502
lthumb 4.14696 -308.451
rfemur -24.1326 -10.5848 21.7258
rtibia 67.2959
rfoot 20.437 -11.2018
rtoes 23.7559
lfemur -56.1871 366.162 -17.1818
ltibia 75.0341
lfoot -22.1837 -14.6439
ltoes 15.0292
4194
root 14.4882 24.5927 0.827179 -407.962 -95.5747 418.1
lowerback 24.1447 2.21326 1.17105
upperback 5.51122 2.81684 1.25573
thorax -7.35561 1.14839 -0.110122
lowerneck -17.0806 -3.1939 -10.1234
upperneck 30.5159 -5.54912 10.1674
head 13.7706 -2.48638 4.85366
rclavicle 1.04983e-015 -8.08805e-015
rhumerus -24.7549 0.863336 -84.8202
rradius 49.3711
rwrist -16.6708
rhand -23.2556 10.9206
rfingers 7.12502
rthumb 3.19625 -19.0351
lclavicle 1.04983e-015 -8.08805e-015
lhumerus -28.3689 -0.279686 83.5058
lradius 44.1956
lwrist 10.4732
lhand -21.9656 21.5322
lfingers 7.12502
lthumb 4.44201 -308.534
rfemur -25.1888 -10.8712 21.7716
rtibia 69.809
rfoot 17.7018 -11.8444
rtoes 25.3513
lfemur -54.9515 365.779 -17.0495
ltibia 73.5517
lfoot -21.5504 -14.9949
ltoes 17.5221
4195
root 14.4137 24.7174 0.823538 -408.741 -95.6272 418.746
lowerback 24.0263 2.1802 1.03251
upperback 5.46152 2.75731 1.38785
thorax -7.36422 1.12518 0.133014
lowerneck -17.0693 -3.17089 -10.1976
upperneck 30.6248 -5.5116 10.1666
head 13.8123 -2.48362 4.87769
rclavicle -6.80216e-015 -1.3418e-015
rhumerus -24.8174 0.703284 -84.653
rradius 48.8686
rwrist -16.2709
rhand -23.498 11.1477
rfingers 7.12502
rthumb 2.96221 -18.8115
lclavicle -6.80216e-015 -1.3418e-015
lhumerus -28.5374 -0.059572 83.5008
lradius 44.2489
lwrist 10.2372
lhand -22.0524 21.4006
lfingers 7.12502
lthumb 4.35818 -308.664
rfemur -26.1006 -11.1549 22.0082
rtibia 72.2056
rfoot 15.3159 -11.5148
rtoes 24.2836
lfemur -53.6052 365.756 -16.8065
ltibia 72.1005
lfoot -20.6349 -15.6438
ltoes 21.303
4196
root 14.3408 24.8333 0.820768 -410.424 -95.6597 420.269
lowerback 23.8614 2.11811 1.02332
upperback 5.46744 2.68371 1.49353
thorax -7.27914 1.09257 0.279734
lowerneck -17.1767 -3.17646 -10.071
upperneck 30.8073 -5.53645 10.0459
head 13.9105 -2.49693 4.80878
rclavicle 3.61477e-014 2.49972e-014
rhumerus -24.8106 0.253233 -84.5119
rradius 48.306
rwrist -15.5718
rhand -23.5065 11.5185
rfingers 7.12502
rthumb 2.954 -18.4408
lclavicle 3.61477e-014 2.49972e-014
lhumerus -28.582 -0.0675319 83.4895
lradius 44.2014
lwrist 9.9672
lhand -21.9998 21.1942
lfingers 7.12502
lthumb 4.40892 -308.872
rfemur -26.965 -11.5536 22.3312
rtibia 74.4575
rfoot 12.9473 -11.1349
rtoes 22.4567
lfemur -52.2722 365.824 -16.6702
ltibia 70.6126
lfoot -20.2414 -15.9788
ltoes 21.6269
4197
root 14.2654 24.9633 0.814077 -408.971 -95.3779 418.718
lowerback 23.662 2.1273 0.629837
upperback 5.40921 2.60829 1.46921
thorax -7.25832 1.06761 0.503635
lowerneck -17.1453 -3.15249 -10.0557
upperneck 30.9159 -5.54411 10.0845
head 13.9525 -2.49932 4.8254
rclavicle 1.05977e-014 5.57839e-015
rhumerus -24.9535 -0.357029 -84.4135
rradius 47.8318
rwrist -15.0103
rhand -23.248 11.5149
rfingers 7.12502
rthumb 3.20357 -18.4408
lclavicle 1.05977e-014 5.57839e-015
lhumerus -28.6728 -0.43072 83.546
lradius 44.1084
lwrist 9.99597
lhand -21.4524 21.4418
lfingers 7.12502
lthumb 4.93754 -308.636
rfemur -27.9029 -11.8248 22.132
rtibia 76.5872
rfoot 10.3011 -11.3939
rtoes 22.3618
lfemur -50.9183 365.732 -16.9048
ltibia 69.0735
lfoot -19.6402 -16.4509
ltoes 24.2153
4198
root 14.1911 25.0891 0.805151 -406.244 -95.0613 415.912
lowerback 23.4919 2.15151 0.111935
upperback 5.30537 2.53049 1.47212
thorax -7.30824 1.04468 0.827274
lowerneck -16.98 -3.12064 -10.0725
upperneck 30.9969 -5.50034 10.0046
head 13.9425 -2.50154 4.80534
rclavicle 1.0051e-014 1.49089e-015
rhumerus -25.1569 -0.662876 -84.2196
rradius 47.3396
rwrist -14.6547
rhand -22.9713 11.368
rfingers 7.12502
rthumb 3.47081 -18.5835
lclavicle 1.0051e-014 1.49089e-015
lhumerus -28.9039 -0.628345 83.6914
lradius 44.0416
lwrist 9.91372
lhand -21.2173 21.5735
lfingers 7.12502
lthumb 5.16457 -308.509
rfemur -28.8407 -12.0865 21.8468
rtibia 78.5809
rfoot 7.623 -11.8385
rtoes 21.9557
lfemur -49.5629 365.663 -17.2836
ltibia 67.4493
lfoot -19.1845 -16.3952
ltoes 25.0786
4199
root 14.1165 25.2005 0.800424 -405.161 -94.8515 414.78
lowerback 23.2325 2.13737 -0.130971
upperback 5.23667 2.4653 1.45997
thorax -7.25896 1.02301 0.976381
lowerneck -16.9045 -3.10449 -9.5465
upperneck 31.1628 -5.51864 9.5238
head 13.966 -2.51503 4.51387
rclavicle 5.5933e-014 8.97016e-015
rhumerus -25.2821 -0.947874 -84.0241
rradius 46.7773
rwrist -14.2773
rhand -22.7522 11.3448
rfingers 7.12502
rthumb 3.68241 -18.6031
lclavicle 5.5933e-014 8.97016e-015
lhumerus -29.0554 -0.727771 83.7506
lradius 43.9832
lwrist 9.45292
lhand -21.4299 21.3043
lfingers 7.12502
lthumb 4.95927 -308.774
rfemur -29.7779 -12.4691 21.7727
rtibia 80.3671
rfoot 5.12319 -12.0866
rtoes 20.8358
lfemur -48.2798 365.797 -17.7045
ltibia 65.7496
lfoot -19.3909 -15.6573
ltoes 20.2332
4200
root 14.0388 25.3092 0.79646 -404.003 -94.5964 413.494
lowerback 23.0094 2.12876 -0.26532
upperback 5.19271 2.41693 1.27699
thorax -7.1883 1.0058 0.872045
lowerneck -16.8472 -3.08158 -8.88799
upperneck 31.3413 -5.65838 9.28638
head 14.0182 -2.53541 4.27977
rclavicle 2.21521e-014 -1.25234e-014
rhumerus -25.4731 -1.49828 -84.0361
rradius 46.3077
rwrist -13.8754
rhand -22.8001 11.3965
rfingers 7.12502
rthumb 3.63612 -18.5522
lclavicle 2.21521e-014 -1.25234e-014
lhumerus -29.061 -1.18939 83.5197
lradius 43.8233
lwrist 9.11314
lhand -20.9292 21.0668
lfingers 7.12502
lthumb 5.44271 -309.023
rfemur -30.5431 -12.8718 21.6356
rtibia 81.904
rfoot 2.84689 -12.0456
rtoes 19.5145
lfemur -46.8906 365.969 -18.117
ltibia 64.066
lfoot -19.5442 -15.2748
ltoes 16.1497
4201
root 13.9612 25.4248 0.790916 -403.58 -94.4364 412.886
lowerback 22.8567 2.09513 -0.39203
upperback 5.14801 2.34679 1.21753
thorax -7.15954 0.977428 0.902396
lowerneck -16.7967 -3.04477 -8.78073
upperneck 31.5334 -5.68598 9.30342
head 14.0917 -2.54088 4.27009
rclavicle -1.21329e-014 7.85898e-015
rhumerus -25.7085 -1.86358 -83.9798
rradius 45.9035
rwrist -13.5168
rhand -22.9297 11.5989
rfingers 7.12502
rthumb 3.51102 -18.3519
lclavicle -1.21329e-014 7.85898e-015
lhumerus -29.0995 -1.49398 83.3705
lradius 43.5831
lwrist 8.85661
lhand -19.9862 20.9396
lfingers 7.12502
lthumb 6.35316 -309.176
rfemur -31.1043 -13.2098 21.6482
rtibia 83.1098
rfoot 0.738324 -11.6142
rtoes 17.5407
lfemur -45.4345 365.813 -18.1184
ltibia 62.4706
lfoot -18.9336 -15.83
ltoes 19.3457
